# xmcd
#
# Track frame offsets: 
#        150
#        18617
#        41246
#        59079
#        81418
#        99929
#        116100
#        137808
#        153731
#        171102
#        207571
#        234823
#        274555
#        289987
#
# Disc length: 4082 seconds
#
# Revision: 1
# Processed by: cddbd v1.5.2PL0 Copyright (c) Steve Scherf et al.
# Submitted via: ExactAudioCopyFreeDBPlugin 1.0
#
DISCID=d30ff00e
DTITLE=Stephanie Mills - What Cha Gonna Do With My Lovin'
DYEAR=1979
DGENRE=Soul
TTITLE0=What Cha Gonna Do With My Lovin'
TTITLE1=You Can Get Over
TTITLE2=Deeper Inside Your Love
TTITLE3=Feel The Fire
TTITLE4=Put Your Body In It
TTITLE5=Starlight
TTITLE6=You And I
TTITLE7=Don't Stop Dancin'
TTITLE8=Better Than Ever
TTITLE9=What Cha Gonna Do With My Lovin' (12" Remix)
TTITLE10=Put Your Body In It (12" Remix)
TTITLE11=You Can Get Over (12" Remix)
TTITLE12=What Cha Gonna Do With My Lovin' (Single Version)
TTITLE13=You Can Get Over (Single Version)
EXTD=
EXTT0=
EXTT1=
EXTT2=
EXTT3=
EXTT4=
EXTT5=
EXTT6=
EXTT7=
EXTT8=
EXTT9=
EXTT10=
EXTT11=
EXTT12=
EXTT13=
PLAYORDER=
